<svg width="117" height="87" viewBox="0 0 117 87" fill="none" xmlns="http://www.w3.org/2000/svg">
<path d="M79 45L65.5 59.5" stroke="white" stroke-width="2.25" stroke-miterlimit="10" stroke-linecap="round" stroke-linejoin="round"/>
<path d="M111 81C111 81 97.0183 80.6901 46 48" stroke="#FFED00" stroke-width="2.25" stroke-miterlimit="10" stroke-linecap="round" stroke-linejoin="round"/>
<path d="M5 24L34 42" stroke="#FFED00" stroke-width="2.25" stroke-miterlimit="10" stroke-linecap="round" stroke-linejoin="round"/>
<path d="M20 16C20 16 63.6179 37.857 58.5977 55" stroke="#FFED00" stroke-width="2.25" stroke-miterlimit="10" stroke-linecap="round" stroke-linejoin="round"/>
<path d="M7.74713 39.6194L92.1319 83.4552C95.1674 84.988 98.6581 85.4478 101.997 84.5281L108.371 82.8422C113.228 81.4627 116.112 76.4047 114.594 71.5L114.442 71.0402C112.469 64.4495 107.613 59.085 101.39 56.6326L71.3393 5.7463C71.3393 5.7463 57.346 4.38011 63.2651 18.3279C55.2212 24.1522 32.9412 17.7015 33.2447 5.59302C33.5482 -6.51547 19.2817 15.8623 19.2817 15.8623C19.2817 15.8623 12.1485 17.2417 6.22942 21.6866C0.00679712 26.2848 0.765654 36.0942 7.74713 39.6194Z" stroke="white" stroke-width="2.25" stroke-miterlimit="10" stroke-linecap="round" stroke-linejoin="round"/>
<path d="M63 18C63 18 91.1504 70.9172 101 56.5159" stroke="white" stroke-width="2.25" stroke-miterlimit="10" stroke-linecap="round" stroke-linejoin="round"/>
<path d="M79 21L74 22" stroke="white" stroke-width="2.25" stroke-miterlimit="10" stroke-linecap="round" stroke-linejoin="round"/>
<path d="M82.9954 26.7655L77.0784 28.9985" stroke="white" stroke-width="2.25" stroke-miterlimit="10" stroke-linecap="round" stroke-linejoin="round"/>
<path d="M87 33L81 36" stroke="white" stroke-width="2.25" stroke-miterlimit="10" stroke-linecap="round" stroke-linejoin="round"/>
</svg>
