<svg width="144" height="87" viewBox="0 0 144 87" fill="none" xmlns="http://www.w3.org/2000/svg">
<path d="M28.8315 24.0548C33.5081 24.0548 37.2993 20.2369 37.2993 15.5274C37.2993 10.8178 33.5081 7 28.8315 7C24.1549 7 20.3638 10.8178 20.3638 15.5274C20.3638 20.2369 24.1549 24.0548 28.8315 24.0548Z" stroke="white" stroke-width="2.25" stroke-miterlimit="10" stroke-linecap="round" stroke-linejoin="round"/>
<path d="M73.1289 80.4535C78.1173 80.4535 82.1612 76.3811 82.1612 71.3576C82.1612 66.3341 78.1173 62.2617 73.1289 62.2617C68.1406 62.2617 64.0967 66.3341 64.0967 71.3576C64.0967 76.3811 68.1406 80.4535 73.1289 80.4535Z" fill="#FFED00"/>
<path d="M115.223 19.0548C119.9 19.0548 123.691 15.2369 123.691 10.5274C123.691 5.81785 119.9 2 115.223 2C110.547 2 106.755 5.81785 106.755 10.5274C106.755 15.2369 110.547 19.0548 115.223 19.0548Z" stroke="white" stroke-width="2.25" stroke-miterlimit="10" stroke-linecap="round" stroke-linejoin="round"/>
<path d="M54.1018 26.8456L37.3631 33.9157V55.022L49.5273 80.1832C50.359 81.8468 49.6312 83.9262 47.9677 84.654C46.3043 85.4858 44.2249 84.758 43.4972 83.0944L29.9815 55.022H27.2783V81.2229C27.2783 83.0944 25.7188 84.654 23.8474 84.654C21.976 84.654 20.4165 83.0944 20.4165 81.2229V34.0197L3.98976 26.6377C2.32629 25.9099 1.49456 23.8304 2.32629 22.1669C2.84613 20.9192 4.09373 20.1914 5.34133 20.1914C5.7572 20.1914 6.27703 20.2954 6.6929 20.5033L21.4562 27.1575H35.9076L51.3987 20.6073C53.1661 19.8795 55.1415 20.7113 55.8692 22.3748C56.701 24.1423 55.8692 26.1178 54.1018 26.8456Z" stroke="white" stroke-width="2.25" stroke-miterlimit="10" stroke-linecap="round" stroke-linejoin="round"/>
<path d="M129.581 56.5744H100.226L105.535 32.7794L106.992 26.1413L107.825 22.4648H121.982L122.607 25.4265L124.064 31.9624L129.581 56.5744Z" stroke="white" stroke-width="2.25" stroke-miterlimit="10" stroke-linecap="round" stroke-linejoin="round"/>
<path d="M130.247 79.6061L125.68 70.331C125.275 69.5086 125.064 68.6045 125.062 67.6878L125.048 56.5742H118.29V68.8719C118.29 69.7583 118.486 70.6337 118.865 71.4352L124.425 83.2013C125.048 84.3248 126.192 84.9989 127.336 84.9989C127.856 84.9989 128.48 84.8865 129 84.5495C130.663 83.5383 131.183 81.4037 130.247 79.6061Z" stroke="white" stroke-width="2.25" stroke-miterlimit="10" stroke-linecap="round" stroke-linejoin="round"/>
<path d="M104.639 81.1595V71.8503C104.639 70.7829 104.924 69.7348 105.464 68.8141L112.645 56.5742H104.947L98.7988 67.0058C98.2547 67.9289 97.9678 68.9809 97.9678 70.0524V81.385C97.9678 82.4 98.3783 83.3022 98.9942 83.9789C99.5074 84.5428 100.328 84.9939 101.15 84.9939C103.1 85.1066 104.639 83.3022 104.639 81.1595Z" stroke="white" stroke-width="2.25" stroke-miterlimit="10" stroke-linecap="round" stroke-linejoin="round"/>
<path d="M106.259 27.5L93.6781 21.6472C93.2669 21.4345 92.753 21.3281 92.3418 21.3281C91.0056 21.3281 89.7721 22.0726 89.2581 23.3489C88.4358 25.0507 89.2581 27.1778 90.9028 27.9224L104.769 35" stroke="white" stroke-width="2.25" stroke-miterlimit="10" stroke-linecap="round" stroke-linejoin="round"/>
<path d="M124.5 33.8352L139.926 27.0428C141.586 26.2881 142.416 24.2396 141.793 22.2989C141.067 20.5738 139.096 19.7113 137.332 20.466L123.14 26.5" stroke="white" stroke-width="2.25" stroke-miterlimit="10" stroke-linecap="round" stroke-linejoin="round"/>
</svg>
