<svg width="45" height="82" viewBox="0 0 45 82" fill="none" xmlns="http://www.w3.org/2000/svg">
<path d="M42.6478 21.1157C43.3947 20.1597 43.4049 18.9452 42.6704 18.4029C41.936 17.8607 40.7351 18.196 39.9882 19.1519C39.2413 20.1079 39.2311 21.3224 39.9655 21.8647C40.6999 22.407 41.9008 22.0716 42.6478 21.1157Z" stroke="white" stroke-width="2" stroke-miterlimit="10"/>
<path d="M38.5652 13.7592C39.3322 11.7866 38.7938 9.7584 37.3625 9.2291C35.9313 8.69979 34.1491 9.8698 33.3821 11.8424C32.615 13.815 33.1534 15.8431 34.5847 16.3725C36.016 16.9018 37.7981 15.7318 38.5652 13.7592Z" stroke="white" stroke-width="2" stroke-miterlimit="10"/>
<path d="M30.2854 9.11517C30.5948 7.02433 29.6188 5.15829 28.1055 4.94725C26.5921 4.73621 25.1146 6.26009 24.8052 8.35092C24.4959 10.4418 25.4719 12.3078 26.9852 12.5188C28.4985 12.7299 29.9761 11.206 30.2854 9.11517Z" stroke="white" stroke-width="2" stroke-miterlimit="10"/>
<path d="M21.2294 6.67372C21.4099 4.56822 20.0745 2.74119 18.2467 2.59295C16.4188 2.4447 14.7907 4.03137 14.6101 6.13687C14.4296 8.24237 15.765 10.0694 17.5928 10.2176C19.4207 10.3659 21.0488 8.77922 21.2294 6.67372Z" stroke="#FFED00" stroke-miterlimit="10" stroke-linecap="round" stroke-dasharray="2 2"/>
<path d="M7.07339 12.4525C9.4918 12.0951 11.073 9.38722 10.6051 6.40418C10.1372 3.42113 7.79736 1.29256 5.37894 1.64988C2.96052 2.00721 1.37932 4.71511 1.84722 7.69816C2.31513 10.6812 4.65497 12.8098 7.07339 12.4525Z" stroke="white" stroke-width="2" stroke-miterlimit="10"/>
<path d="M10.307 18.0452C6.63474 22.099 10.205 32.0851 13.2652 43.4553C14.1833 46.817 14.3873 50.3764 13.7753 53.738C11.9391 64.1196 11.7351 65.8004 11.7351 65.8004C11.7351 65.8004 9.89899 77.2695 19.3857 80.4334C19.4877 80.4334 19.5897 80.5323 19.6917 80.5323C25.2002 82.312 31.2186 78.8515 32.1367 73.2158C32.8507 69.3598 33.1568 63.1309 31.4226 54.8256C31.0146 52.947 31.2186 49.9809 31.7287 48.2012C34.1768 39.6982 35.5029 34.5569 36.115 31.5907C36.727 28.7234 36.421 25.7572 35.1969 23.0877C32.1367 16.661 17.6516 9.93774 10.307 18.0452Z" stroke="white" stroke-width="2" stroke-miterlimit="10"/>
</svg>
