<svg width="85" height="85" viewBox="0 0 85 85" fill="none" xmlns="http://www.w3.org/2000/svg">
<path d="M2 83H12.0187C14.1418 83 16.1986 82.2766 17.9569 80.9925C23.7292 76.7424 29.7006 77.1765 35.8047 81.3C37.4634 82.4213 39.3543 83 41.3116 83H82" stroke="white" stroke-width="2.1582" stroke-miterlimit="10" stroke-linecap="round"/>
<path d="M9.82178 2H39.401C40.8758 2 42.0192 3.26572 41.8867 4.7313L39.3182 33.4265C39.1193 35.7082 39.2685 38.0231 39.8816 40.2381C40.7764 43.5024 42.4335 46.217 44.9192 48.3154C46.1951 49.398 47.6368 50.2307 49.1779 50.8635L65.7821 57.7417C67.5386 58.4745 69.4608 58.7243 71.3334 58.3913C71.8305 58.308 72.2945 58.1747 72.6756 58.0249C74.1339 57.392 75.791 57.442 77.1498 58.2414C78.724 59.1573 79.8509 60.3398 80 62.8213C79.9006 65.1029 78.9229 66.9182 76.8184 68.0674C75.675 68.7002 74.3659 69 73.0567 69H18.0741C14.6605 69 11.3463 67.7842 8.81095 65.486C5.91102 62.8546 4.65162 59.4072 5.08247 55.0937C5.29789 52.962 5.91102 50.8968 6.85557 48.965C9.73892 43.1027 11.28 37.0738 11.5949 30.9118C11.6777 29.1464 11.628 27.3977 11.4457 25.6324C11.0977 22.3515 10.5178 19.2871 9.57321 16.5225C8.92695 14.5906 8.39667 12.6254 8.06525 10.6269C7.68412 8.41188 7.45213 6.31345 7.41898 4.44817C7.38584 3.11583 8.47953 2 9.82178 2Z" stroke="white" stroke-width="2.1582" stroke-miterlimit="10" stroke-linecap="round" stroke-linejoin="round"/>
<path d="M26 39V59" stroke="#FFED00" stroke-width="3.16" stroke-miterlimit="10" stroke-linecap="round" stroke-linejoin="round"/>
<path d="M20 53L25.8843 60L32 53" stroke="#FFED00" stroke-width="3.16" stroke-miterlimit="10" stroke-linecap="round" stroke-linejoin="round"/>
</svg>
