<svg width="45" height="82" viewBox="0 0 45 82" fill="none" xmlns="http://www.w3.org/2000/svg">
<path d="M2.34002 21.1582C1.60004 20.1983 1.5919 18.9773 2.32184 18.431C3.05179 17.8847 4.2434 18.22 4.98338 19.1799C5.72337 20.1398 5.73151 21.3608 5.00156 21.9071C4.27162 22.4534 3.08 22.1181 2.34002 21.1582Z" stroke="white" stroke-width="2" stroke-miterlimit="10"/>
<path d="M6.44875 14.1372C5.70088 12.1879 6.25103 10.1741 7.67754 9.6394C9.10405 9.10468 10.8667 10.2515 11.6146 12.2008C12.3625 14.1502 11.8123 16.1639 10.3858 16.6987C8.95931 17.2334 7.19663 16.0866 6.44875 14.1372Z" stroke="white" stroke-width="2" stroke-miterlimit="10"/>
<path d="M14.7254 8.68277C14.4334 6.68268 15.421 4.88825 16.9311 4.67479C18.4412 4.46133 19.9021 5.90968 20.194 7.90977C20.486 9.90986 19.4985 11.7043 17.9883 11.9178C16.4782 12.1312 15.0173 10.6829 14.7254 8.68277Z" stroke="white" stroke-width="2" stroke-miterlimit="10"/>
<path d="M24.0772 6.64751C23.8888 4.42056 25.1404 2.49983 26.8726 2.35742C28.6049 2.21502 30.1619 3.90487 30.3503 6.13182C30.5387 8.35877 29.2871 10.2795 27.5549 10.4219C25.8226 10.5643 24.2656 8.87445 24.0772 6.64751Z" stroke="white" stroke-width="2" stroke-miterlimit="10"/>
<path d="M37.9586 12.4577C35.5453 12.0963 33.9633 9.38486 34.4249 6.40156C34.8866 3.41826 37.2172 1.29279 39.6304 1.6542C42.0437 2.01561 43.6257 4.72704 43.1641 7.71034C42.7024 10.6936 40.3718 12.8191 37.9586 12.4577Z" stroke="white" stroke-width="2" stroke-miterlimit="10"/>
<path d="M34.7096 18.0563C38.375 22.1092 34.8114 32.0934 31.7569 43.4615C30.8406 46.8225 30.6369 50.3813 31.2478 53.7423C33.0805 64.1219 33.2842 65.8024 33.2842 65.8024C33.2842 65.8024 35.1168 77.2694 25.6479 80.4327C25.5461 80.4327 25.4443 80.5315 25.3425 80.5315C19.8444 82.3109 13.8373 78.851 12.9209 73.2164C12.2082 69.3611 11.9027 63.1333 13.6336 54.8297C14.0409 52.9514 13.8372 49.9859 13.3282 48.2065C10.8846 39.7051 9.56097 34.5647 8.95007 31.5991C8.33917 28.7324 8.64462 25.7668 9.86642 23.0978C12.9209 16.6723 27.3788 9.95028 34.7096 18.0563Z" stroke="white" stroke-width="2" stroke-miterlimit="10"/>
<path d="M15.7509 32.0039C17.6962 32.0039 19.2732 30.4369 19.2732 28.5039C19.2732 26.5709 17.6962 25.0039 15.7509 25.0039C13.8055 25.0039 12.2285 26.5709 12.2285 28.5039C12.2285 30.4369 13.8055 32.0039 15.7509 32.0039Z" fill="#FFED00"/>
<path d="M15.7508 30.0039C16.5845 30.0039 17.2604 29.3323 17.2604 28.5039C17.2604 27.6755 16.5845 27.0039 15.7508 27.0039C14.9171 27.0039 14.2412 27.6755 14.2412 28.5039C14.2412 29.3323 14.9171 30.0039 15.7508 30.0039Z" stroke="#1D1D1B" stroke-width="1.12323" stroke-miterlimit="10"/>
<path d="M25.8149 27.0039C28.316 27.0039 30.3436 24.9892 30.3436 22.5039C30.3436 20.0186 28.316 18.0039 25.8149 18.0039C23.3137 18.0039 21.2861 20.0186 21.2861 22.5039C21.2861 24.9892 23.3137 27.0039 25.8149 27.0039Z" fill="#FFED00"/>
<path d="M25.8148 25.0039C27.2043 25.0039 28.3308 23.8846 28.3308 22.5039C28.3308 21.1232 27.2043 20.0039 25.8148 20.0039C24.4253 20.0039 23.2988 21.1232 23.2988 22.5039C23.2988 23.8846 24.4253 25.0039 25.8148 25.0039Z" stroke="#1D1D1B" stroke-width="1.12323" stroke-miterlimit="10"/>
</svg>
