<svg width="95" height="88" viewBox="0 0 95 88" fill="none" xmlns="http://www.w3.org/2000/svg">
<g clip-path="url(#clip0_1748_13109)">
<mask id="mask0_1748_13109" style="mask-type:luminance" maskUnits="userSpaceOnUse" x="-18" y="0" width="126" height="88">
<path d="M108 0H-18V88H108V0Z" fill="white"/>
</mask>
<g mask="url(#mask0_1748_13109)">
<path d="M48.8482 -44C50.3733 -40.0905 39.9013 -8.81481 39.9013 -8.81481C39.9013 -8.81481 34.0044 6.61728 34.8178 15.2593C41.0197 23.9012 36.7495 39.3333 36.7495 39.3333C36.7495 39.3333 34.6144 49.0041 31.7677 61.3498C31.2593 63.5103 31.5643 65.7737 32.581 67.7284C39.1896 80.0741 31.7677 80.6914 31.7677 80.6914L6.85852 81C5.74015 81 4.82512 79.9712 5.02846 78.8395C5.33347 77.2963 6.35017 75.9589 7.77355 75.4444C25.7691 68.2428 21.3973 59.4979 21.3973 59.4979C11.7387 30.6914 22.414 14.642 20.584 12.07C20.584 12.07 12.7554 -25.07 12.0437 -44" stroke="white" stroke-width="2.24646" stroke-miterlimit="10" stroke-linecap="round" stroke-linejoin="round"/>
</g>
<mask id="mask1_1748_13109" style="mask-type:luminance" maskUnits="userSpaceOnUse" x="-18" y="0" width="126" height="88">
<path d="M108 0H-18V88H108V0Z" fill="white"/>
</mask>
<g mask="url(#mask1_1748_13109)">
<path d="M40.1525 -54.8971C38.6203 -50.9877 49.141 -19.7119 49.141 -19.7119C49.141 -19.7119 55.0652 -4.27984 54.2481 4.36214C48.0174 13.107 52.3074 28.4362 52.3074 28.4362C52.3074 28.4362 54.4523 38.107 57.3123 50.4527C57.823 52.6132 57.5166 54.8765 56.4952 56.8313C49.856 69.1769 57.3123 69.7942 57.3123 69.7942L82.1329 70C83.2564 70 84.1757 68.9712 83.9714 67.8395C83.665 66.2963 82.6436 64.9588 81.2136 64.4444C63.1344 57.2428 67.5265 48.4979 67.5265 48.4979C77.23 19.6914 66.5051 3.64197 68.3437 1.06996C68.3437 1.06996 76.2086 -36.07 76.9236 -55" stroke="white" stroke-width="2.24646" stroke-miterlimit="10" stroke-linecap="round" stroke-linejoin="round"/>
</g>
<mask id="mask2_1748_13109" style="mask-type:luminance" maskUnits="userSpaceOnUse" x="-18" y="0" width="126" height="88">
<path d="M108 0H-18V88H108V0Z" fill="white"/>
</mask>
<g mask="url(#mask2_1748_13109)">
<path d="M86.625 82H55.375C52.9792 82 51 79.9643 51 77.5C51 75.0357 52.9792 73 55.375 73H86.625C89.0208 73 91 75.0357 91 77.5C91 79.9643 89.0208 82 86.625 82Z" fill="#FFED00"/>
</g>
</g>
<defs>
<clipPath id="clip0_1748_13109">
<rect width="95" height="88" fill="white"/>
</clipPath>
</defs>
</svg>
