<svg width="86" height="88" viewBox="0 0 86 88" fill="none" xmlns="http://www.w3.org/2000/svg">
<path d="M41.2835 20.7892C46.4859 20.7892 50.7032 16.5831 50.7032 11.3946C50.7032 6.20609 46.4859 2 41.2835 2C36.0811 2 31.8638 6.20609 31.8638 11.3946C31.8638 16.5831 36.0811 20.7892 41.2835 20.7892Z" stroke="white" stroke-width="2.25" stroke-linecap="round" stroke-linejoin="round"/>
<path d="M32.0711 56.8188H24.6699V39.2513C24.6699 29.048 32.1056 20.7891 41.2838 20.7891C50.462 20.7891 57.8977 29.0652 57.8977 39.2513V56.8188H50.4965" stroke="white" stroke-width="2.25" stroke-linecap="round" stroke-linejoin="round"/>
<path d="M41.2835 65.4405V86.0019H32.0708V53.293" stroke="white" stroke-width="2.25" stroke-linecap="round" stroke-linejoin="round"/>
<path d="M41.2832 65.4405V86.0019H50.4959V53.293" stroke="white" stroke-width="2.25" stroke-linecap="round" stroke-linejoin="round"/>
<path d="M69.0768 28.4992C73.8409 28.4992 77.7029 24.6474 77.7029 19.8961C77.7029 15.1447 73.8409 11.293 69.0768 11.293C64.3127 11.293 60.4507 15.1447 60.4507 19.8961C60.4507 24.6474 64.3127 28.4992 69.0768 28.4992Z" stroke="white" stroke-width="2.25" stroke-linecap="round" stroke-linejoin="round"/>
<path d="M57.4492 34.192C60.0888 30.8024 64.0223 28.6172 68.4216 28.6172C74.4944 28.6172 79.9116 32.5918 82.1372 41.0745C82.534 42.6058 82.7755 44.1716 82.9135 45.7545L84.0004 59.227H79.7046" stroke="white" stroke-width="2.25" stroke-linecap="round" stroke-linejoin="round"/>
<path d="M61.9346 71.7896V82.4919H76.0296V71.2734" stroke="white" stroke-width="2.25" stroke-linejoin="round"/>
<path d="M13.8184 38.7856C17.5153 38.7856 20.5122 35.7966 20.5122 32.1096C20.5122 28.4225 17.5153 25.4336 13.8184 25.4336C10.1215 25.4336 7.12451 28.4225 7.12451 32.1096C7.12451 35.7966 10.1215 38.7856 13.8184 38.7856Z" stroke="white" stroke-width="2.25" stroke-linecap="round" stroke-linejoin="round"/>
<path d="M7.26193 64.4419H2V51.9502C2 44.6892 7.29644 38.8047 13.8178 38.8047C18.9802 38.8047 22.3173 41.4819 24.4738 44.3381" stroke="white" stroke-width="2.25" stroke-linecap="round" stroke-linejoin="round"/>
<path d="M20.5287 67.6038V82.4872H7.26172V61.9258" stroke="#FFED00" stroke-width="2.25" stroke-linecap="round" stroke-linejoin="round"/>
<path d="M57.8979 63.4764L54.4819 71.2708H83.6555L78.5143 55.6992" stroke="#FFED00" stroke-width="2.25" stroke-linecap="round" stroke-linejoin="round"/>
</svg>
