<svg width="72" height="84" viewBox="0 0 72 84" fill="none" xmlns="http://www.w3.org/2000/svg">
<path d="M38.6732 1C35.6801 23.8291 32.4508 47.7716 34.9765 57.176C38.8138 71.2749 60.3859 72.3192 65.3641 72.3192C66.4012 72.3192 67.3346 72.6325 68.1643 73.2592C68.268 73.2592 68.268 73.3636 68.3717 73.3636C71.5868 75.9745 69.72 81.3007 65.5715 81.4052C54.9929 81.8229 22.9459 82.554 16.9307 81.3007C13.7156 80.6741 12.1599 78.5854 11.4339 76.4967C10.5005 73.9902 10.8117 71.2749 11.9525 68.8728C12.9896 66.7841 12.9896 64.4865 12.1599 62.2934C11.6414 61.0401 11.4339 59.7869 11.4339 58.4292C11.4339 56.7583 11.7451 55.1917 12.3673 53.834C13.8193 50.4921 14.1304 46.8368 12.9896 43.3904C12.9896 43.286 12.9896 43.286 12.9896 43.286C8.14123 29.1456 6.76262 14.3289 7.03212 1" stroke="white" stroke-width="2.24646" stroke-miterlimit="10"/>
<path d="M7 51C7 51 3.2409 57.7317 6.02991 63" stroke="#FFED00" stroke-width="2.24646" stroke-miterlimit="10" stroke-linecap="round"/>
<path d="M3 52C3 52 1.08284 57.6522 2.55758 62" stroke="#FFED00" stroke-width="2.24646" stroke-miterlimit="10" stroke-linecap="round"/>
<path d="M41 49C41 49 44.7591 55.7317 41.9701 61" stroke="#FFED00" stroke-width="2.24646" stroke-miterlimit="10" stroke-linecap="round"/>
<path d="M45 51C45 51 46.9172 56.6522 45.4424 61" stroke="#FFED00" stroke-width="2.24646" stroke-miterlimit="10" stroke-linecap="round"/>
</svg>
