<svg width="51" height="89" viewBox="0 0 51 89" fill="none" xmlns="http://www.w3.org/2000/svg">
<path d="M36.0749 11.2593C36.0749 15.2754 33.4857 18.7337 29.7707 20.0723C28.7575 20.407 27.7444 20.6301 26.7312 20.6301C25.3803 20.6301 24.0294 20.2955 22.7911 19.7377C19.5264 18.2874 17.2749 15.0523 17.2749 11.2593C17.2749 6.12764 21.4402 2 26.6186 2C31.9096 2 36.0749 6.12764 36.0749 11.2593Z" stroke="white" stroke-width="2.25" stroke-miterlimit="10" stroke-linecap="round" stroke-linejoin="round"/>
<path d="M21.9748 69.5352L18.7164 85.8365H9.0498V69.5352H9.91871H21.9748Z" stroke="white" stroke-width="2.25" stroke-miterlimit="10" stroke-linecap="round" stroke-linejoin="round"/>
<path d="M49.0001 87.0012V59.1962C49.0001 56.5792 46.822 54.3984 44.3001 54.3984C41.6635 54.3984 39.6001 56.5792 39.6001 59.1962V61.1589" stroke="#FFED00" stroke-width="2.25" stroke-miterlimit="10" stroke-linecap="round" stroke-linejoin="round"/>
<path d="M45.6275 52.9366C44.1943 54.6636 41.5486 54.8795 39.7848 53.4763L30.1939 45.5967L27.7686 43.5458L19.9416 37.0694C18.1778 35.6661 17.9573 33.0756 19.3904 31.3485C20.1621 30.3771 21.3747 29.9453 22.5874 29.9453C23.4693 29.9453 24.4614 30.2691 25.2331 30.9168L27.7686 32.9676L30.1939 35.0185L45.0763 47.2158C46.9503 48.7269 47.1708 51.2095 45.6275 52.9366Z" stroke="white" stroke-width="2.25" stroke-miterlimit="10" stroke-linecap="round" stroke-linejoin="round"/>
<path d="M27.85 43.9195V69.536H23.89H9.92H2V47.1595C2 34.4357 12.34 24.125 25.1 24.125H27.85V32.8579" stroke="white" stroke-width="2.25" stroke-miterlimit="10" stroke-linecap="round" stroke-linejoin="round"/>
<path d="M24.3246 69.5352H10.2246H24.3246Z" stroke="white" stroke-width="2.25" stroke-miterlimit="10" stroke-linecap="round" stroke-linejoin="round"/>
</svg>
