<svg width="47" height="82" viewBox="0 0 47 82" fill="none" xmlns="http://www.w3.org/2000/svg">
<path d="M4.59129 22.0253C3.89205 21.1134 3.88443 19.9534 4.57426 19.4343C5.26409 18.9153 6.39015 19.2338 7.08939 20.1457C7.78863 21.0576 7.79625 22.2176 7.10642 22.7367C6.41659 23.2558 5.29052 22.9373 4.59129 22.0253Z" stroke="white" stroke-width="2" stroke-miterlimit="10"/>
<path d="M8.4429 16.0879C7.727 14.2118 8.23974 12.2791 9.58812 11.7709C10.9365 11.2628 12.6099 12.3717 13.3258 14.2477C14.0417 16.1237 13.529 18.0565 12.1806 18.5646C10.8322 19.0728 9.15879 17.9639 8.4429 16.0879Z" stroke="white" stroke-width="2" stroke-miterlimit="10"/>
<path d="M16.2419 10.6312C15.9536 8.64534 16.8771 6.87104 18.3047 6.66817C19.7322 6.4653 21.1232 7.91068 21.4116 9.89651C21.6999 11.8823 20.7763 13.6566 19.3488 13.8595C17.9212 14.0624 16.5302 12.617 16.2419 10.6312Z" stroke="white" stroke-width="2" stroke-miterlimit="10"/>
<path d="M24.7837 8.31384C24.6155 6.31442 25.8771 4.57802 27.6016 4.43549C29.3262 4.29296 30.8606 5.79827 31.0288 7.79769C31.1971 9.79712 29.9355 11.5335 28.2109 11.676C26.4864 11.8186 24.952 10.3133 24.7837 8.31384Z" stroke="white" stroke-width="2" stroke-miterlimit="10"/>
<path d="M38.1573 13.7907C35.876 13.4471 34.3801 10.8717 34.8161 8.03831C35.2521 5.20496 37.4548 3.18661 39.7361 3.53021C42.0174 3.8738 43.5133 6.44923 43.0773 9.28258C42.6413 12.1159 40.4386 14.1343 38.1573 13.7907Z" stroke="white" stroke-width="2" stroke-miterlimit="10"/>
<path d="M35.0847 19.1652C38.5497 23.0775 35.1809 32.7151 32.2934 43.6885C31.4272 46.9329 31.2347 50.368 31.8122 53.6124C33.5447 63.6316 33.7372 65.2538 33.7372 65.2538C33.7372 65.2538 35.4697 76.3227 26.5184 79.3761C26.4221 79.3761 26.3259 79.4716 26.2296 79.4716C21.0321 81.1891 15.3533 77.8494 14.4871 72.4104C13.8133 68.6889 13.5246 62.6774 15.1608 54.662C15.5458 52.849 15.3533 49.9863 14.8721 48.2688C12.5621 40.0625 11.3108 35.1006 10.7333 32.238C10.1558 29.4707 10.4446 26.6081 11.5996 24.0317C14.4871 17.8293 28.1546 11.3407 35.0847 19.1652Z" stroke="white" stroke-width="2" stroke-miterlimit="10"/>
<path d="M23.4998 75.7732C26.6724 75.7732 29.2443 73.2172 29.2443 70.0643C29.2443 66.9114 26.6724 64.3555 23.4998 64.3555C20.3272 64.3555 17.7554 66.9114 17.7554 70.0643C17.7554 73.2172 20.3272 75.7732 23.4998 75.7732Z" fill="#FFED00"/>
</svg>
