<svg width="84" height="84" viewBox="0 0 84 84" fill="none" xmlns="http://www.w3.org/2000/svg">
<path d="M54.6976 21.43C53.9909 21.5247 39.2207 23.6079 33.3127 32.5312C28.226 40.2139 31.677 49.9952 32.9094 52.9237L28.2891 59.9019C27.7008 60.7905 27.9509 61.8558 28.8477 62.2814C29.7444 62.707 30.9485 62.3317 31.5368 61.443L36.1571 54.4648C37.3467 54.2535 39.4194 53.8262 41.8468 53.0694C46.7493 51.5409 53.0922 48.6702 56.4945 43.5314C62.4026 34.6084 56.7934 22.8545 56.5203 22.2949C56.2179 21.6681 55.4881 21.3209 54.6976 21.43ZM36.5604 34.0722C39.7161 29.306 46.5596 26.8711 50.8942 25.7601L35.6614 48.767C34.5152 45.0623 33.3939 38.8548 36.5604 34.0722ZM53.2469 41.9901C50.0912 46.7565 43.2477 49.1913 38.9131 50.3023L54.146 27.2952C55.2921 31.0001 56.4134 37.2076 53.2469 41.9901Z" fill="#FFED00"/>
<circle cx="42" cy="42" r="40" stroke="white" stroke-width="2.22222"/>
</svg>
