<svg width="97" height="87" viewBox="0 0 97 87" fill="none" xmlns="http://www.w3.org/2000/svg">
<path d="M31 37L38 36" stroke="#FFED00" stroke-width="2.25" stroke-miterlimit="10" stroke-linecap="round" stroke-linejoin="round"/>
<path d="M33 45L40 41" stroke="#FFED00" stroke-width="2.25" stroke-miterlimit="10" stroke-linecap="round" stroke-linejoin="round"/>
<path d="M39 54L44 47" stroke="#FFED00" stroke-width="2.25" stroke-miterlimit="10" stroke-linecap="round" stroke-linejoin="round"/>
<path d="M49 58L52 50" stroke="#FFED00" stroke-width="2.25" stroke-miterlimit="10" stroke-linecap="round" stroke-linejoin="round"/>
<path d="M58 60L58.0224 50" stroke="#FFED00" stroke-width="2.25" stroke-miterlimit="10" stroke-linecap="round" stroke-linejoin="round"/>
<path d="M5 43C19.5556 44.2232 29.8 51.4959 32 70" stroke="#FFED00" stroke-width="2.25" stroke-miterlimit="10" stroke-linecap="round" stroke-linejoin="round"/>
<path d="M65.5 51C70.3447 58.2271 69.4731 63.4553 64.5 70.5" stroke="#FFED00" stroke-width="2.25" stroke-miterlimit="10" stroke-linecap="round" stroke-linejoin="round"/>
<path d="M36.3105 12H5.68955C3.66852 12 2 10.3645 2 8.33177L2 5.66823C2 3.65888 3.64502 2 5.68955 2H36.3105C38.3315 2 40 3.63552 40 5.66823V8.35514C39.9765 10.3645 38.3315 12 36.3105 12Z" stroke="white" stroke-width="2.25" stroke-miterlimit="10"/>
<path d="M5 12L5 71H93C92.9098 62.5964 90.8586 57.4887 85.5164 54.1054C82.2029 52.01 77.9652 50.8095 72.7582 50.7658C28.3525 50.5694 39.2623 33.0418 37.9549 12H5Z" stroke="white" stroke-width="2.25" stroke-miterlimit="10"/>
<path d="M5 71L5 85H24.1594V83.2669C24.1594 81.0161 25.9724 79.1929 28.2106 79.1929H32.2619C34.5001 79.1929 36.3131 81.0161 36.3131 83.2669V85H89.6954C92.6275 85 95 82.6141 95 79.6656V76.3344C95 73.3859 92.6275 71 89.6954 71H5Z" stroke="white" stroke-width="2.25" stroke-miterlimit="10" stroke-linecap="round" stroke-linejoin="round"/>
<path d="M31 28L41 29" stroke="#FFED00" stroke-width="2.25" stroke-miterlimit="10" stroke-linecap="round" stroke-linejoin="round"/>
<path d="M50 80V85" stroke="white" stroke-width="2.25" stroke-miterlimit="10" stroke-linecap="round" stroke-linejoin="round"/>
<path d="M61 80V85" stroke="white" stroke-width="2.25" stroke-miterlimit="10" stroke-linecap="round" stroke-linejoin="round"/>
<path d="M70 80V85" stroke="white" stroke-width="2.25" stroke-miterlimit="10" stroke-linecap="round" stroke-linejoin="round"/>
<path d="M83 80V85" stroke="white" stroke-width="2.25" stroke-miterlimit="10" stroke-linecap="round" stroke-linejoin="round"/>
</svg>
