<svg width="63" height="81" viewBox="0 0 63 81" fill="none" xmlns="http://www.w3.org/2000/svg">
<path d="M37.0412 73.5162C36.6418 70.1236 37.8399 68.7266 41.6339 68.2277C40.7353 65.334 39.8368 62.54 38.9382 59.6463C37.9398 56.3534 36.9414 53.1604 35.8431 49.8675C35.7433 49.4684 35.5436 49.0692 35.3439 48.6701C32.5483 43.7807 32.149 38.7915 34.2456 33.503C34.645 32.5051 34.9445 31.6071 35.4437 30.6092C36.6418 28.414 37.0412 26.2188 36.8415 23.7242C36.7417 22.0278 36.8415 20.3315 37.5404 18.735C38.439 16.6395 39.9366 15.1428 41.9334 14.0452C40.5357 12.6482 39.7369 10.9519 39.5372 9.05597C39.2377 6.56138 39.7369 4.26636 41.4342 2.27068C44.0301 -0.822612 48.2235 -0.722828 50.7195 2.37047C53.1157 5.36398 53.1157 9.85424 50.9192 12.9475C50.7195 13.1471 50.6197 13.3467 50.42 13.5462C51.5182 14.1449 52.7163 14.5441 53.7147 15.2426C60.2044 19.4335 62.3011 27.516 58.7068 34.7004C58.2076 35.6982 57.5087 36.5963 56.9097 37.5941C56.71 37.9932 56.5103 38.3924 56.5103 38.7915C56.4105 40.9867 56.5103 43.182 56.3106 45.3772C56.2108 47.0735 55.5119 48.6701 54.5135 50.1668C53.1157 52.0627 52.5166 54.1582 52.6165 56.4532C52.7163 60.7439 52.6165 65.1344 52.6165 69.4251C52.6165 70.7223 52.4168 71.9197 52.2171 73.2169C52.317 73.2169 52.6165 73.2169 52.8162 73.2169C55.7116 73.2169 58.5071 73.2169 61.4025 73.2169C62.6006 73.2169 63 73.7158 63 74.8134C63 76.3102 63 77.8069 63 79.2039C63 80.6009 62.6006 81 61.2029 81C50.2203 81 39.3376 81 28.355 81C20.8669 81 13.3788 81 5.89065 81C4.39303 81 3.99366 80.6009 3.99366 79.1041C3.99366 77.7071 3.99366 76.3102 3.99366 74.8134C3.99366 73.5162 4.39303 73.1171 5.69097 73.1171C7.28843 73.1171 8.8859 73.1171 10.4834 73.1171C10.4834 61.7417 10.4834 50.4662 10.4834 39.0909C9.3851 39.0909 8.28685 39.0909 7.18859 39.0909C5.2916 39.0909 3.49445 39.0909 1.59746 39.0909C0.499208 39.0909 0 38.5919 0 37.4943C0 34.2015 0 30.9086 0 27.6157C0 26.5181 0.499208 26.0192 1.59746 26.0192C7.48811 26.0192 13.4786 26.0192 19.3693 26.0192C20.5674 26.0192 20.9667 26.5181 20.9667 27.7155C20.9667 30.9086 20.9667 34.1017 20.9667 37.2947C20.9667 38.7915 20.5674 39.0909 19.1696 39.1906C18.9699 39.1906 18.6704 39.1906 18.3708 39.1906C18.3708 50.566 18.3708 61.8415 18.3708 73.2169C24.7607 73.5162 30.851 73.5162 37.0412 73.5162ZM51.2187 28.2144C51.1189 28.5138 51.019 28.8131 50.9192 29.0127C49.4216 32.8045 47.8241 36.696 46.3265 40.4878C45.9271 41.5854 46.1268 42.3837 46.8257 42.9824C47.5246 43.5811 48.523 43.5811 49.4216 42.9824C49.8209 42.6831 50.1204 42.3837 50.42 41.9846C51.9176 40.1885 53.3154 38.2926 54.7132 36.3967C55.412 35.3989 56.1109 34.401 56.6101 33.3034C60.3043 25.4205 55.8114 17.0387 47.3249 15.8413C42.9319 15.2426 39.5372 18.2361 39.4374 22.6265C39.4374 24.1233 39.4374 25.6201 39.4374 27.017C39.4374 27.5159 39.3376 28.0149 39.1379 28.5138C38.3391 30.5095 37.4406 32.5051 36.542 34.5008C34.9445 38.5919 35.1442 42.5833 37.141 46.4748C37.4406 47.0735 37.9398 47.6722 38.1395 48.271C40.336 55.156 42.4326 62.0411 44.6292 68.9262C44.9287 70.0238 44.4295 70.7223 43.2314 70.7223C42.5325 70.7223 41.8336 70.7223 41.1347 70.7223C40.1363 70.7223 39.5372 71.2212 39.5372 72.0195C39.5372 72.8177 40.1363 73.3167 41.1347 73.3167C43.0317 73.3167 45.0285 73.3167 46.9255 73.3167C49.0222 73.3167 50.0206 72.3188 50.0206 70.2234C50.0206 65.4337 50.0206 60.6441 50.0206 55.8545C50.0206 53.9586 50.42 52.2623 51.2187 50.566C51.6181 49.8675 52.0174 49.169 52.5166 48.5703C53.9144 46.4748 54.1141 44.1798 53.9144 41.6852C53.2155 42.5833 52.6165 43.2818 52.0174 44.08C50.3201 45.9759 47.7242 46.3751 45.7274 45.1777C43.7306 43.9803 43.0317 41.5854 44.0301 39.1906C44.5293 37.9932 45.0285 36.7958 45.4279 35.5984C46.5261 32.8045 47.7242 29.9108 48.8225 27.017C49.6212 27.6157 50.42 27.9151 51.2187 28.2144ZM60.4041 76.3102C42.4326 76.3102 24.6609 76.3102 6.78922 76.3102C6.78922 77.2082 6.78922 78.0065 6.78922 78.8048C24.6609 78.8048 42.5325 78.8048 60.4041 78.8048C60.4041 77.9067 60.4041 77.1084 60.4041 76.3102ZM18.4707 29.1125C13.1791 29.1125 7.98732 29.1125 2.79556 29.1125C2.79556 31.7069 2.79556 34.3012 2.79556 36.8956C7.98732 36.8956 13.1791 36.8956 18.4707 36.8956C18.4707 34.3012 18.4707 31.7069 18.4707 29.1125ZM13.3788 39.5898C13.3788 50.9651 13.3788 62.2407 13.3788 73.5162C14.2773 73.5162 15.0761 73.5162 15.8748 73.5162C15.8748 62.1409 15.8748 50.8653 15.8748 39.5898C15.0761 39.5898 14.2773 39.5898 13.3788 39.5898ZM50.0206 8.15792C50.0206 6.56138 49.6212 5.16441 48.4231 3.967C47.1252 2.57003 45.2282 2.57003 43.8304 3.76744C41.5341 5.86289 41.5341 10.2534 43.8304 12.3488C45.2282 13.646 47.0254 13.646 48.3233 12.3488C49.5214 11.2512 49.9208 9.75446 50.0206 8.15792Z" fill="white"/>
</svg>
