<svg width="39" height="85" viewBox="0 0 39 85" fill="none" xmlns="http://www.w3.org/2000/svg">
<path d="M34 43.3649C34 46.3169 33.081 49.0653 31.5493 51.4065C31.243 51.9154 30.4397 51.2029 30.1333 51.1011C29.0101 50.6939 27.138 49.676 25.3 50.2868C22.2366 51.3047 21.7465 52 19.5 52C16.6408 52 15.3134 50.2868 12.25 50.2868C10.8204 50.2868 9.90141 49.676 8.98239 50.2868C8.47183 50.5921 7.65493 51.7119 7.24648 51.1011C5.8169 48.8617 5 46.2151 5 43.3649C5 40.0057 6.12324 36.8502 8.16549 34.4072C8.77817 33.6946 9.28873 34.7125 10.1056 35.0179C11.0246 35.3233 12.25 35.0179 13.169 35.0179C15.1092 35.0179 16.8451 34 19.2958 34C21.9507 34 24.0202 35.2398 26.2667 35.3416C27.9005 35.4433 30.6941 34.0001 30.9366 34.3054C32.8768 36.7484 34 39.9039 34 43.3649Z" fill="#FFED00"/>
<path d="M37 60.5517C37 54.7586 32.256 50 26.247 50C23.6114 50 21.2922 50.931 19.3946 52.3793C17.497 50.931 15.1777 50 12.5422 50C6.74398 50 2 54.7586 2 60.5517C2 65.5172 5.47892 69.6552 10.1175 70.7931V83H28.8825V70.6897C33.5211 69.6552 37 65.5172 37 60.5517Z" stroke="white" stroke-width="2.24646" stroke-miterlimit="10" stroke-linecap="round" stroke-linejoin="round"/>
<path d="M2 24.4483C2 30.2414 6.71557 35 12.6886 35C15.3084 35 17.6138 34.069 19.5 32.6207C21.3862 34.069 23.6916 35 26.3114 35C32.1796 35 37 30.3448 37 24.4483C37 19.4828 33.5419 15.3448 28.9311 14.2069V2H10.0689V14.2069C5.45808 15.3448 2 19.4828 2 24.4483Z" stroke="white" stroke-width="2.24646" stroke-miterlimit="10" stroke-linecap="round" stroke-linejoin="round"/>
<path d="M7.00516 25C7.00516 25 6.59873 31.4444 13 32" stroke="white" stroke-width="2.24646" stroke-miterlimit="10" stroke-linecap="round" stroke-linejoin="round"/>
<path d="M33.9948 61C33.9948 61 34.4013 54.5556 28 54" stroke="white" stroke-width="2.24646" stroke-miterlimit="10" stroke-linecap="round" stroke-linejoin="round"/>
</svg>
