<svg width="45" height="82" viewBox="0 0 45 82" fill="none" xmlns="http://www.w3.org/2000/svg">
<path d="M2.36222 21.0886C1.61002 20.137 1.5978 18.9294 2.33492 18.3913C3.07204 17.8533 4.27938 18.1886 5.03158 19.1402C5.78378 20.0918 5.796 21.2994 5.05888 21.8375C4.32176 22.3755 3.11442 22.0402 2.36222 21.0886Z" stroke="white" stroke-width="2" stroke-miterlimit="10"/>
<path d="M6.43978 13.7282C5.66494 11.7585 6.19795 9.73721 7.63031 9.21358C9.06267 8.68995 10.852 9.86223 11.6268 11.832C12.4016 13.8017 11.8686 15.8229 10.4363 16.3466C9.00392 16.8702 7.21463 15.6979 6.43978 13.7282Z" stroke="white" stroke-width="2" stroke-miterlimit="10"/>
<path d="M14.7285 9.08686C14.4156 6.99622 15.3881 5.1324 16.9007 4.92389C18.4132 4.71537 19.893 6.24113 20.2059 8.33177C20.5188 10.4224 19.5463 12.2862 18.0338 12.4947C16.5212 12.7032 15.0414 11.1775 14.7285 9.08686Z" stroke="white" stroke-width="2" stroke-miterlimit="10"/>
<path d="M23.7816 6.64738C23.5989 4.54172 24.9316 2.71603 26.7582 2.56959C28.5848 2.42314 30.2136 4.01139 30.3963 6.11705C30.579 8.22271 29.2463 10.0484 27.4197 10.1949C25.5931 10.3413 23.9642 8.75304 23.7816 6.64738Z" stroke="#FFED00" stroke-miterlimit="10" stroke-linecap="round" stroke-dasharray="2 2"/>
<path d="M37.9093 12.4392C35.4921 12.0862 33.9162 9.38206 34.3895 6.39941C34.8627 3.41675 37.206 1.28503 39.6232 1.63809C42.0404 1.99114 43.6163 4.69527 43.1431 7.67792C42.6698 10.6606 40.3266 12.7923 37.9093 12.4392Z" stroke="white" stroke-width="2" stroke-miterlimit="10"/>
<path d="M34.7 18.0341C38.3695 22.0886 34.802 32.0763 31.744 43.4484C30.8267 46.8106 30.6228 50.3706 31.2344 53.7328C33.0691 64.1161 33.273 65.7972 33.273 65.7972C33.273 65.7972 35.1077 77.2682 25.6282 80.4326C25.5263 80.4326 25.4244 80.5315 25.3224 80.5315C19.8182 82.3115 13.8043 78.8504 12.8869 73.2138C12.1734 69.3572 11.8676 63.1272 13.6004 54.8206C14.0081 52.9417 13.8043 49.9751 13.2946 48.1951C10.8483 39.6907 9.52321 34.5485 8.91162 31.5818C8.30004 28.7141 8.60583 25.7474 9.829 23.0774C12.8869 16.6497 27.361 9.92529 34.7 18.0341Z" stroke="white" stroke-width="2" stroke-miterlimit="10"/>
</svg>
