<svg width="67" height="85" viewBox="0 0 67 85" fill="none" xmlns="http://www.w3.org/2000/svg">
<path d="M17.2738 1C17.2738 1 0.23775 11.5056 15.0095 22.8689C3.58027 34.8754 -9.2507 50.6338 13.9313 73.8964C13.9313 73.8964 12.2061 82.258 13.3922 83.33C14.5783 84.402 62.4518 83.866 62.4518 83.866C62.4518 83.866 67.5195 74.4324 59.1093 54.1715C50.6991 33.9106 68.0586 8.18243 65.7943 3.68001C60.511 3.46561 17.2738 1 17.2738 1Z" stroke="white" stroke-width="2" stroke-miterlimit="10" stroke-linecap="round" stroke-linejoin="round"/>
<path d="M20.9024 62L10.8219 52.4319C3.00673 45.0139 13.0872 35.4458 20.9024 42.8638C29.0574 35.1233 39.1378 44.6914 30.9828 52.4319L20.9024 62Z" fill="#FFED00"/>
</svg>
