<svg width="75" height="67" viewBox="0 0 75 67" fill="none" xmlns="http://www.w3.org/2000/svg">
<path fill-rule="evenodd" clip-rule="evenodd" d="M75 40.5C75 41.1624 74.7249 41.7977 74.2351 42.2664C73.7454 42.7352 73.0809 42.999 72.3878 43H2.61619C1.92233 43 1.25689 42.7366 0.766263 42.2678C0.275633 41.7989 0 41.1631 0 40.5C0 39.837 0.275633 39.2011 0.766263 38.7323C1.25689 38.2634 1.92233 38 2.61619 38H72.3679C72.7128 37.998 73.0547 38.0612 73.374 38.186C73.6932 38.3107 73.9835 38.4945 74.2281 38.7269C74.4727 38.9592 74.6669 39.2355 74.7993 39.5398C74.9318 39.8441 75 40.1704 75 40.5Z" fill="#FFED00"/>
<path fill-rule="evenodd" clip-rule="evenodd" d="M69.5 67C68.837 67 68.2011 66.7268 67.7322 66.2406C67.2634 65.7543 67 65.0948 67 64.4071V50.5929C67 49.9052 67.2634 49.2457 67.7322 48.7594C68.2011 48.2732 68.837 48 69.5 48C70.163 48 70.7989 48.2732 71.2678 48.7594C71.7366 49.2457 72 49.9052 72 50.5929V64.4189C71.997 65.1046 71.7323 65.761 71.2638 66.2447C70.7952 66.7285 70.1611 67 69.5 67Z" fill="white"/>
<path fill-rule="evenodd" clip-rule="evenodd" d="M69.5 33C68.837 33 68.2011 32.7261 67.7322 32.2385C67.2634 31.7509 67 31.0896 67 30.4V9.6C67 8.91044 67.2634 8.24912 67.7322 7.76152C68.2011 7.27393 68.837 7 69.5 7C70.163 7 70.7989 7.27393 71.2678 7.76152C71.7366 8.24912 72 8.91044 72 9.6V30.4C72 31.0896 71.7366 31.7509 71.2678 32.2385C70.7989 32.7261 70.163 33 69.5 33Z" fill="white"/>
<path fill-rule="evenodd" clip-rule="evenodd" d="M43.5 67C42.837 67 42.2011 66.7268 41.7322 66.2406C41.2634 65.7543 41 65.0948 41 64.4071V50.5929C41 49.9052 41.2634 49.2457 41.7322 48.7594C42.2011 48.2732 42.837 48 43.5 48C44.163 48 44.7989 48.2732 45.2678 48.7594C45.7366 49.2457 46 49.9052 46 50.5929V64.4189C45.997 65.1046 45.7323 65.761 45.2638 66.2447C44.7952 66.7285 44.1611 67 43.5 67Z" fill="white"/>
<path fill-rule="evenodd" clip-rule="evenodd" d="M43.5 32C42.837 32 42.2011 31.7337 41.7322 31.2598C41.2634 30.7858 41 30.143 41 29.4727V2.52732C41 1.85704 41.2634 1.2142 41.7322 0.740237C42.2011 0.266272 42.837 0 43.5 0C44.163 0 44.7989 0.266272 45.2678 0.740237C45.7366 1.2142 46 1.85704 46 2.52732V29.4765C45.999 30.1461 45.7352 30.788 45.2664 31.2611C44.7977 31.7343 44.1624 32 43.5 32Z" fill="white"/>
<path fill-rule="evenodd" clip-rule="evenodd" d="M18.5 67C17.837 67 17.2011 66.7268 16.7322 66.2406C16.2634 65.7543 16 65.0948 16 64.4071V50.5929C16 49.9052 16.2634 49.2457 16.7322 48.7594C17.2011 48.2732 17.837 48 18.5 48C19.163 48 19.7989 48.2732 20.2678 48.7594C20.7366 49.2457 21 49.9052 21 50.5929V64.4189C20.997 65.1046 20.7323 65.761 20.2638 66.2447C19.7952 66.7285 19.1611 67 18.5 67Z" fill="white"/>
<path fill-rule="evenodd" clip-rule="evenodd" d="M6.5 67C5.83696 67 5.20107 66.7268 4.73223 66.2406C4.26339 65.7543 4 65.0948 4 64.4071V50.5929C4 49.9052 4.26339 49.2457 4.73223 48.7594C5.20107 48.2732 5.83696 48 6.5 48C7.16304 48 7.79893 48.2732 8.26777 48.7594C8.73661 49.2457 9 49.9052 9 50.5929V64.4189C8.99699 65.1046 8.73227 65.761 8.26376 66.2447C7.79524 66.7285 7.16107 67 6.5 67Z" fill="white"/>
<path fill-rule="evenodd" clip-rule="evenodd" d="M18.5 32C17.837 32 17.2011 31.727 16.7322 31.241C16.2634 30.7551 16 30.096 16 29.4087V15.5913C16 14.904 16.2634 14.2449 16.7322 13.759C17.2011 13.273 17.837 13 18.5 13C19.163 13 19.7989 13.273 20.2678 13.759C20.7366 14.2449 21 14.904 21 15.5913V29.4087C21 30.096 20.7366 30.7551 20.2678 31.241C19.7989 31.727 19.163 32 18.5 32Z" fill="white"/>
<path fill-rule="evenodd" clip-rule="evenodd" d="M55.5 67C54.837 67 54.2011 66.7268 53.7322 66.2406C53.2634 65.7543 53 65.0948 53 64.4071V50.5929C53 49.9052 53.2634 49.2457 53.7322 48.7594C54.2011 48.2732 54.837 48 55.5 48C56.163 48 56.7989 48.2732 57.2678 48.7594C57.7366 49.2457 58 49.9052 58 50.5929V64.4189C57.997 65.1046 57.7323 65.761 57.2638 66.2447C56.7952 66.7285 56.1611 67 55.5 67Z" fill="white"/>
<path fill-rule="evenodd" clip-rule="evenodd" d="M55.5 32C54.837 32 54.2011 31.727 53.7322 31.241C53.2634 30.7551 53 30.096 53 29.4087V15.5913C53 14.904 53.2634 14.2449 53.7322 13.759C54.2011 13.273 54.837 13 55.5 13C56.163 13 56.7989 13.273 57.2678 13.759C57.7366 14.2449 58 14.904 58 15.5913V29.4087C58 30.096 57.7366 30.7551 57.2678 31.241C56.7989 31.727 56.163 32 55.5 32Z" fill="white"/>
<path fill-rule="evenodd" clip-rule="evenodd" d="M31.5 67C31.1717 67 30.8466 66.9329 30.5433 66.8026C30.24 66.6723 29.9644 66.4813 29.7322 66.2406C29.5001 65.9998 29.3159 65.714 29.1903 65.3994C29.0647 65.0848 29 64.7476 29 64.4071V50.5929C29 49.9052 29.2634 49.2457 29.7322 48.7594C30.2011 48.2732 30.837 48 31.5 48C32.163 48 32.7989 48.2732 33.2678 48.7594C33.7366 49.2457 34 49.9052 34 50.5929V64.4189C33.997 65.1046 33.7323 65.761 33.2638 66.2447C32.7952 66.7285 32.1611 67 31.5 67Z" fill="white"/>
<path fill-rule="evenodd" clip-rule="evenodd" d="M31.5 32C31.1717 32 30.8466 31.933 30.5433 31.8028C30.24 31.6725 29.9644 31.4817 29.7322 31.241C29.5001 31.0004 29.3159 30.7148 29.1903 30.4004C29.0647 30.086 29 29.749 29 29.4087V15.5913C29 14.904 29.2634 14.2449 29.7322 13.759C30.2011 13.273 30.837 13 31.5 13C32.163 13 32.7989 13.273 33.2678 13.759C33.7366 14.2449 34 14.904 34 15.5913V29.4087C34 30.096 33.7366 30.7551 33.2678 31.241C32.7989 31.727 32.163 32 31.5 32Z" fill="white"/>
<path fill-rule="evenodd" clip-rule="evenodd" d="M6.5 33C5.83696 33 5.20107 32.726 4.73223 32.2382C4.26339 31.7505 4 31.089 4 30.3992V9.60079C4 8.91102 4.26339 8.2495 4.73223 7.76175C5.20107 7.27401 5.83696 7 6.5 7C7.16304 7 7.79893 7.27401 8.26777 7.76175C8.73661 8.2495 9 8.91102 9 9.60079V30.3992C9 31.089 8.73661 31.7505 8.26777 32.2382C7.79893 32.726 7.16304 33 6.5 33Z" fill="white"/>
</svg>
