<svg width="69" height="86" viewBox="0 0 69 86" fill="none" xmlns="http://www.w3.org/2000/svg">
<path d="M32.9532 18.3138C32.9532 18.3138 39.5151 25.6341 37.9275 41.1113C36.6575 53.242 39.9384 55.7519 41.4201 56.3793C42.0551 56.5885 42.796 57.0068 43.2194 57.5296C44.4894 58.8891 45.8653 61.3989 43.3252 64.8499C42.3727 66.1048 41.1026 67.046 39.7267 67.778C35.1757 70.1833 32.7415 75.0983 31.5773 78.8631C30.6247 81.6866 28.1905 83.6735 25.227 83.8827L22.5811 83.9873C20.2527 84.1964 18.4535 81.7912 19.406 79.6997C19.9352 78.5493 21.2052 77.2944 23.8512 75.9349C26.2854 68.6146 27.1321 58.0525 27.1321 58.0525L17.3951 20.4053C16.8659 18.5229 16.3367 16.7452 15.7017 14.9674C14.6433 11.8301 13.585 5.45099 22.1578 3.67321L61 2" stroke="white" stroke-width="2.24646" stroke-miterlimit="10" stroke-linecap="round" stroke-linejoin="round"/>
<path d="M36 22L67 24" stroke="white" stroke-width="2.24646" stroke-miterlimit="10" stroke-linecap="round" stroke-linejoin="round"/>
<path d="M9 29C9 29 9.42308 46.166 20 55" stroke="#FFED00" stroke-width="2.24646" stroke-miterlimit="10" stroke-linecap="round"/>
<path d="M2.0005 37C2.0005 37 1.78999 50.4359 10 57" stroke="#FFED00" stroke-width="2.24646" stroke-miterlimit="10" stroke-linecap="round"/>
<path d="M45 51C45 51 50.055 40.4894 47.0414 32" stroke="#FFED00" stroke-width="2.24646" stroke-miterlimit="10" stroke-linecap="round"/>
<path d="M51 51C51 51 56.0882 42.7021 53.0116 36" stroke="#FFED00" stroke-width="2.24646" stroke-miterlimit="10" stroke-linecap="round"/>
</svg>
