<svg width="84" height="84" viewBox="0 0 84 84" fill="none" xmlns="http://www.w3.org/2000/svg">
<circle cx="42" cy="42" r="40" stroke="white" stroke-width="2.22222"/>
<g clip-path="url(#clip0_1748_13000)">
<path d="M53.3437 30.6562C52.7155 24.6764 47.6435 20 41.5 20C35.3565 20 30.2845 24.6764 29.6563 30.6562C23.6764 31.2845 19 36.3565 19 42.5C19 49.0667 24.3424 54.4092 30.9092 54.4092H31.3658C31.9745 55.2552 32.7544 56.049 33.7473 56.6223C35.075 57.3889 36.5536 57.629 37.885 57.629C38.7463 57.629 39.5456 57.5284 40.203 57.4049V63.6816C40.203 64.4097 40.7933 65 41.5214 65C42.2494 65 42.8397 64.4097 42.8397 63.6816V57.4128C43.489 57.5326 44.2722 57.629 45.1151 57.629C46.4463 57.629 47.9252 57.3888 49.2527 56.6223C50.2457 56.049 51.0256 55.2553 51.6343 54.4092H52.1296C52.1444 54.4092 52.1593 54.4089 52.174 54.4084C55.3312 54.3869 58.2958 53.1442 60.5261 50.9066C62.7663 48.6589 64 45.6734 64 42.5C64 36.3565 59.3236 31.2845 53.3437 30.6562ZM47.9343 54.3388C46.7201 55.0399 45.2206 55.0714 44.0291 54.9295C44.838 53.8853 45.6993 52.451 46.0196 50.7985C47.549 49.9702 49.4954 50.157 50.7167 50.4059C50.3102 51.6146 49.4694 53.4526 47.9343 54.3388ZM35.0657 54.3388C33.5211 53.447 32.6836 51.6139 32.2804 50.4065C33.5014 50.1574 35.4499 49.9696 36.9805 50.7985C37.3008 52.4509 38.162 53.8852 38.9709 54.9294C37.7789 55.0714 36.2797 55.0398 35.0657 54.3388ZM43.5128 49.4742C43.5128 51.258 42.3435 52.9002 41.5001 53.8527C40.6561 52.8996 39.4872 51.2577 39.4872 49.4742C39.4872 47.6904 40.6565 46.0482 41.4999 45.0958C42.3439 46.0488 43.5128 47.6907 43.5128 49.4742ZM53.049 51.7225C53.4645 50.6232 53.6185 49.7848 53.6329 49.7031C53.744 49.073 53.3867 48.4542 52.7854 48.2353C52.6193 48.1749 49.168 46.9474 45.9811 47.9642C45.2631 44.7032 42.4825 42.3347 42.3474 42.2213C41.8573 41.8101 41.1426 41.8101 40.6526 42.2213C40.5174 42.3348 37.7368 44.7033 37.0188 47.9643C33.8318 46.9477 30.3805 48.1749 30.2145 48.2353C29.6133 48.4542 29.256 49.073 29.3671 49.7031C29.3815 49.7848 29.5355 50.6236 29.9512 51.7232C25.2868 51.2423 21.6367 47.2894 21.6367 42.5C21.6367 37.3871 25.7963 33.2275 30.9092 33.2275C31.6373 33.2275 32.2275 32.6373 32.2275 31.9092C32.2275 26.7963 36.3871 22.6367 41.5 22.6367C46.6129 22.6367 50.7725 26.7963 50.7725 31.9092C50.7725 32.6373 51.3627 33.2275 52.0908 33.2275C57.2037 33.2275 61.3633 37.3871 61.3633 42.5C61.3633 47.2824 57.7108 51.2406 53.049 51.7225Z" fill="#FFED00"/>
</g>
<defs>
<clipPath id="clip0_1748_13000">
<rect width="45" height="45" fill="white" transform="translate(19 20)"/>
</clipPath>
</defs>
</svg>
