<svg width="99" height="83" viewBox="0 0 99 83" fill="none" xmlns="http://www.w3.org/2000/svg">
<path d="M27.576 13.8041C24.0398 14.0329 19.8939 15.4058 15.1383 19.0671C10.6266 22.4995 8.30978 27.9913 9.04141 33.3688C12.0899 55.6794 20.3817 82.4522 29.4051 81.9946C39.526 81.5369 39.526 76.2739 39.526 76.2739C39.526 76.2739 41.5989 68.7226 33.9168 62.5442C31.2342 60.3704 29.1612 58.6542 27.576 57.2812C23.5521 53.8488 21.4791 48.7002 22.5765 43.666C22.9424 41.721 23.7959 39.8904 25.3811 38.403C30.9903 33.14 38.5504 29.3643 39.0382 25.131V25.0166C39.7698 18.8383 34.2826 13.3464 27.576 13.8041Z" stroke="white" stroke-width="2" stroke-miterlimit="10" stroke-linecap="round" stroke-linejoin="round"/>
<path d="M2.42309 21.9616C1.63725 20.9785 1.62155 19.7332 2.38802 19.18C3.15448 18.6268 4.41287 18.9753 5.1987 19.9583C5.98454 20.9414 6.00024 22.1867 5.23378 22.7399C4.46731 23.2931 3.20892 22.9446 2.42309 21.9616Z" stroke="white" stroke-width="2" stroke-miterlimit="10"/>
<path d="M6.6366 14.2925C5.82352 12.2487 6.3672 10.1571 7.85095 9.62071C9.3347 9.08436 11.1966 10.3064 12.0097 12.3502C12.8228 14.394 12.2791 16.4856 10.7954 17.0219C9.31162 17.5583 7.44968 16.3363 6.6366 14.2925Z" stroke="white" stroke-width="2" stroke-miterlimit="10"/>
<path d="M15.226 8.34065C14.897 6.16722 15.8983 4.23247 17.4624 4.01926C19.0265 3.80605 20.5612 5.39513 20.8902 7.56856C21.2192 9.74199 20.2179 11.6767 18.6538 11.89C17.0897 12.1032 15.555 10.5141 15.226 8.34065Z" stroke="white" stroke-width="2" stroke-miterlimit="10"/>
<path d="M25.0902 4.97802C25.1834 2.78206 26.7934 1.06374 28.6864 1.14004C30.5793 1.21634 32.0383 3.05837 31.9451 5.25433C31.8519 7.45029 30.2418 9.16861 28.3489 9.09231C26.456 9.01601 24.997 7.17398 25.0902 4.97802Z" stroke="white" stroke-width="2" stroke-miterlimit="10"/>
<path d="M40.3131 12.9809C37.8134 12.6198 36.1902 9.81343 36.6876 6.71276C37.185 3.61209 39.6147 1.39125 42.1144 1.75237C44.6142 2.1135 46.2374 4.91984 45.74 8.02051C45.2425 11.1212 42.8129 13.342 40.3131 12.9809Z" stroke="white" stroke-width="2" stroke-miterlimit="10"/>
<path d="M71.4211 13.8001C74.9573 14.029 79.1032 15.4019 83.8588 19.0632C88.3705 22.4956 90.6873 27.9874 89.9557 33.3649C86.9072 55.6755 78.6154 82.4483 69.592 81.9907C59.4711 81.533 59.4711 76.27 59.4711 76.27C59.4711 76.27 57.3982 68.7187 65.0803 62.5403C67.7629 60.3665 69.8359 58.6503 71.4211 57.2773C75.445 53.8449 77.518 48.6963 76.4205 43.6621C76.0547 41.7171 75.2011 39.8864 73.6159 38.3991C68.0068 33.136 60.4466 29.3604 59.9589 25.1271V25.0127C59.2272 18.8343 64.7145 13.3425 71.4211 13.8001Z" stroke="white" stroke-width="2" stroke-miterlimit="10" stroke-linecap="round" stroke-linejoin="round"/>
<path d="M96.574 21.9577C97.3598 20.9746 97.3755 19.7293 96.609 19.1761C95.8426 18.6229 94.5842 18.9714 93.7984 19.9544C93.0125 20.9375 92.9968 22.1828 93.7633 22.736C94.5298 23.2892 95.7881 22.9407 96.574 21.9577Z" stroke="white" stroke-width="2" stroke-miterlimit="10"/>
<path d="M92.3605 14.2885C93.1736 12.2448 92.6299 10.1531 91.1462 9.61681C89.6624 9.08047 87.8005 10.3025 86.9874 12.3463C86.1743 14.3901 86.718 16.4817 88.2017 17.018C89.6855 17.5543 91.5474 16.3323 92.3605 14.2885Z" stroke="white" stroke-width="2" stroke-miterlimit="10"/>
<path d="M83.771 8.33675C84.1 6.16332 83.0987 4.22857 81.5346 4.01536C79.9705 3.80215 78.4359 5.39122 78.1069 7.56465C77.7779 9.73809 78.7792 11.6728 80.3433 11.886C81.9074 12.0993 83.4421 10.5102 83.771 8.33675Z" stroke="white" stroke-width="2" stroke-miterlimit="10"/>
<path d="M73.9069 4.97802C73.8137 2.78206 72.2036 1.06374 70.3107 1.14004C68.4178 1.21634 66.9588 3.05837 67.052 5.25433C67.1452 7.45029 68.7552 9.16862 70.6482 9.09232C72.5411 9.01602 74.0001 7.17398 73.9069 4.97802Z" stroke="white" stroke-width="2" stroke-miterlimit="10"/>
<path d="M58.684 12.9809C61.1837 12.6198 62.8069 9.81343 62.3095 6.71276C61.8121 3.6121 59.3824 1.39125 56.8826 1.75238C54.3829 2.1135 52.7597 4.91984 53.2571 8.02051C53.7545 11.1212 56.1842 13.342 58.684 12.9809Z" stroke="white" stroke-width="2" stroke-miterlimit="10"/>
</svg>
